<svg xmlns="http://www.w3.org/2000/svg" width="1000" height="1500" viewBox="0 0 1000 1500"><rect width="1000" height="1500" fill="#17372f"/><rect width="1000" height="22" fill="#d2a85f"/>
  <text x="75" y="125" fill="#f8f3e9" font-family="DejaVu Sans" font-size="23" font-weight="bold">FREE HOMEOWNER RESOURCE</text>
  <text x="75" y="265" fill="#f8f3e9" font-family="DejaVu Sans" font-size="60" font-weight="bold">Service finished?</text><text x="75" y="350" fill="#f8f3e9" font-family="DejaVu Sans" font-size="60" font-weight="bold">Save the details.</text>
  <path d="M760 460 L840 385 L920 460 M785 442 V520 H895 V442" fill="none" stroke="#d2a85f" stroke-width="12" stroke-linejoin="round"/>
  <rect x="65" y="590" width="870" height="120" rx="20" fill="#ffffff"/><circle cx="115" cy="650" r="24" fill="#17372f"/><text x="115" y="660" text-anchor="middle" fill="#ffffff" font-family="DejaVu Sans" font-size="27">1</text><text x="162" y="661" fill="#17372f" font-family="DejaVu Sans" font-size="30">Date + work completed</text><rect x="65" y="740" width="870" height="120" rx="20" fill="#ffffff"/><circle cx="115" cy="800" r="24" fill="#17372f"/><text x="115" y="810" text-anchor="middle" fill="#ffffff" font-family="DejaVu Sans" font-size="27">2</text><text x="162" y="811" fill="#17372f" font-family="DejaVu Sans" font-size="30">Cost + invoice location</text><rect x="65" y="890" width="870" height="120" rx="20" fill="#ffffff"/><circle cx="115" cy="950" r="24" fill="#17372f"/><text x="115" y="960" text-anchor="middle" fill="#ffffff" font-family="DejaVu Sans" font-size="27">3</text><text x="162" y="961" fill="#17372f" font-family="DejaVu Sans" font-size="30">Next action</text>
  <text x="75" y="1140" fill="#f8f3e9" font-family="DejaVu Sans" font-size="30">Open the free guide or tool</text><path d="M75 1240 H925" stroke="#d2a85f" stroke-width="4"/><text x="75" y="1320" fill="#f8f3e9" font-family="DejaVu Sans" font-size="34" font-weight="bold">HOME ROUTINE GUIDE</text><text x="75" y="1390" fill="#f8f3e9" font-family="DejaVu Sans" font-size="28">homeroutineguide.com</text></svg>