<svg xmlns="http://www.w3.org/2000/svg" width="1000" height="1500" viewBox="0 0 1000 1500"><rect width="1000" height="1500" fill="#faf7ef"/><rect width="1000" height="20" fill="#17372f"/><text x="65" y="104" font-family="DejaVu Sans" font-size="24" font-weight="bold" fill="#17372f">FREE HOMEOWNER RESOURCE</text><text x="65" y="220" font-family="DejaVu Sans" font-size="58" font-weight="bold" fill="#17372f">12 months.</text><text x="65" y="296" font-family="DejaVu Sans" font-size="58" font-weight="bold" fill="#17372f">Your home.</text><text x="65" y="372" font-family="DejaVu Sans" font-size="58" font-weight="bold" fill="#17372f">Your plan.</text><rect x="65" y="480" width="210" height="84" rx="12" fill="#e2eadf"/><text x="85" y="517" font-family="DejaVu Sans" font-size="22" font-weight="bold" fill="#17372f">JAN</text><path d="M85 539h175" stroke="#96aa99" stroke-width="2"/><rect x="282.5" y="480" width="210" height="84" rx="12" fill="#e2eadf"/><text x="302.5" y="517" font-family="DejaVu Sans" font-size="22" font-weight="bold" fill="#17372f">FEB</text><path d="M302.5 539h175" stroke="#96aa99" stroke-width="2"/><rect x="500" y="480" width="210" height="84" rx="12" fill="#e2eadf"/><text x="520" y="517" font-family="DejaVu Sans" font-size="22" font-weight="bold" fill="#17372f">MAR</text><path d="M520 539h175" stroke="#96aa99" stroke-width="2"/><rect x="717.5" y="480" width="210" height="84" rx="12" fill="#e2eadf"/><text x="737.5" y="517" font-family="DejaVu Sans" font-size="22" font-weight="bold" fill="#17372f">APR</text><path d="M737.5 539h175" stroke="#96aa99" stroke-width="2"/><rect x="65" y="580" width="210" height="84" rx="12" fill="#e2eadf"/><text x="85" y="617" font-family="DejaVu Sans" font-size="22" font-weight="bold" fill="#17372f">MAY</text><path d="M85 639h175" stroke="#96aa99" stroke-width="2"/><rect x="282.5" y="580" width="210" height="84" rx="12" fill="#e2eadf"/><text x="302.5" y="617" font-family="DejaVu Sans" font-size="22" font-weight="bold" fill="#17372f">JUN</text><path d="M302.5 639h175" stroke="#96aa99" stroke-width="2"/><rect x="500" y="580" width="210" height="84" rx="12" fill="#e2eadf"/><text x="520" y="617" font-family="DejaVu Sans" font-size="22" font-weight="bold" fill="#17372f">JUL</text><path d="M520 639h175" stroke="#96aa99" stroke-width="2"/><rect x="717.5" y="580" width="210" height="84" rx="12" fill="#e2eadf"/><text x="737.5" y="617" font-family="DejaVu Sans" font-size="22" font-weight="bold" fill="#17372f">AUG</text><path d="M737.5 639h175" stroke="#96aa99" stroke-width="2"/><rect x="65" y="680" width="210" height="84" rx="12" fill="#e2eadf"/><text x="85" y="717" font-family="DejaVu Sans" font-size="22" font-weight="bold" fill="#17372f">SEP</text><path d="M85 739h175" stroke="#96aa99" stroke-width="2"/><rect x="282.5" y="680" width="210" height="84" rx="12" fill="#e2eadf"/><text x="302.5" y="717" font-family="DejaVu Sans" font-size="22" font-weight="bold" fill="#17372f">OCT</text><path d="M302.5 739h175" stroke="#96aa99" stroke-width="2"/><rect x="500" y="680" width="210" height="84" rx="12" fill="#e2eadf"/><text x="520" y="717" font-family="DejaVu Sans" font-size="22" font-weight="bold" fill="#17372f">NOV</text><path d="M520 739h175" stroke="#96aa99" stroke-width="2"/><rect x="717.5" y="680" width="210" height="84" rx="12" fill="#e2eadf"/><text x="737.5" y="717" font-family="DejaVu Sans" font-size="22" font-weight="bold" fill="#17372f">DEC</text><path d="M737.5 739h175" stroke="#96aa99" stroke-width="2"/><text x="65" y="865" font-family="DejaVu Sans" font-size="30" font-weight="bold" fill="#17372f">Choose any year</text><text x="65" y="928" font-family="DejaVu Sans" font-size="30" font-weight="normal" fill="#17372f">Add verified tasks + dates</text><text x="65" y="991" font-family="DejaVu Sans" font-size="30" font-weight="normal" fill="#17372f">Print blank or filled</text><text x="65" y="1255" font-family="DejaVu Sans" font-size="23" font-weight="normal" fill="#17372f">Plan from your actual home and instructions.</text><path d="M65 1305H935" stroke="#bd9555" stroke-width="3"/><text x="65" y="1380" font-family="DejaVu Sans" font-size="33" font-weight="bold" fill="#17372f">HOME ROUTINE GUIDE</text><text x="65" y="1438" font-family="DejaVu Sans" font-size="27" font-weight="normal" fill="#17372f">homeroutineguide.com</text></svg>